<svg width="512" height="512" xmlns="http://www.w3.org/2000/svg">
  <!-- Background -->
  <rect width="512" height="512" fill="#FF3D00" rx="64"/>
  
  <!-- Burger Icon -->
  <g transform="translate(128, 160)">
    <!-- Top bun -->
    <ellipse cx="128" cy="32" rx="122" ry="32" fill="#FFD700"/>
    <ellipse cx="128" cy="32" rx="122" ry="22" fill="#FFA500"/>
    <!-- Sesame seeds -->
    <circle cx="90" cy="28" r="4" fill="#F5DEB3"/>
    <circle cx="120" cy="24" r="4" fill="#F5DEB3"/>
    <circle cx="140" cy="26" r="4" fill="#F5DEB3"/>
    <circle cx="165" cy="28" r="4" fill="#F5DEB3"/>
    
    <!-- Lettuce -->
    <rect x="20" y="64" width="216" height="20" fill="#32CD32" rx="4"/>
    <path d="M 20 64 Q 40 60 60 64 T 100 64 T 140 64 T 180 64 T 220 64 L 236 84 L 20 84 Z" fill="#228B22" opacity="0.7"/>
    
    <!-- Tomato -->
    <rect x="24" y="88" width="208" height="16" fill="#FF6347" rx="4"/>
    
    <!-- Cheese -->
    <polygon points="20,108 236,108 228,124 28,124" fill="#FFD700"/>
    
    <!-- Patty -->
    <rect x="26" y="128" width="204" height="32" fill="#8B4513" rx="8"/>
    <rect x="26" y="128" width="204" height="8" fill="#654321" rx="4"/>
    
    <!-- Onion -->
    <rect x="30" y="164" width="196" height="12" fill="#F5F5DC" rx="3"/>
    
    <!-- Bottom bun -->
    <ellipse cx="128" cy="188" rx="118" ry="28" fill="#D2691E"/>
    <rect x="10" y="172" width="236" height="16" fill="#CD853F" rx="4"/>
  </g>
  
  <!-- Text -->
  <text x="256" y="420" font-family="Arial, sans-serif" font-size="84" font-weight="bold" fill="white" text-anchor="middle">
    FoodFast
  </text>
</svg>
